# xmcd
#
# Track frame offsets:
# 150
# 11387
# 21517
# 27507
# 41260
# 52760
# 60637
# 72525
# 80137
# 89672
# 97245
# 107422
# 116512
# 123967
# 132185
# 144750
# 156020
# 167447
#
# Disc length: 2396 seconds
#
#
# Revision: 4
# Processed by: cddbd v1.5PL3 Copyright (c) Steve Scherf et al.
# Submitted via: FreeRIP 2.60 
#
DISCID=e9095a12
DTITLE=Jim Reeves - He'll Have to Go
DYEAR=1999
DGENRE=Country
TTITLE0=Am I Losing You
TTITLE1=He'll have to go
TTITLE2=have I told you lately
TTITLE3=How's the world treating you
TTITLE4=I love you more
TTITLE5=til the end of the world
TTITLE6=I've lived a lot in my time
TTITLE7=The oklahoma hills
TTITLE8=I'm getting better
TTITLE9=Bimbo
TTITLE10=Anna Marie
TTITLE11=Billy Bayou
TTITLE12=Blue Boy
TTITLE13=Waiting for a train
TTITLE14=When God dips his love in my heart
TTITLE15=Just call me lonesome
TTITLE16=If heartaches are in fashion
TTITLE17=Your old love letters
EXTD=Classic Country Radio Highlights
EXTT0=
EXTT1=
EXTT2=
EXTT3=
EXTT4=
EXTT5=
EXTT6=
EXTT7=
EXTT8=
EXTT9=
EXTT10=
EXTT11=
EXTT12=
EXTT13=
EXTT14=
EXTT15=
EXTT16=
EXTT17=
PLAYORDER=
